<mxfile host="app.diagrams.net" modified="2023-09-05T17:34:22.307Z" agent="Mozilla/5.0 (Windows NT 10.0; Win64; x64) AppleWebKit/537.36 (KHTML, like Gecko) Chrome/116.0.0.0 Safari/537.36" version="21.7.2" etag="OSozv1m4z_HvKIIFZ5I0" type="github">
  <diagram name="Trang-1" id="8VTbSydUd81oVuVhn6w0">
    <mxGraphModel>
      <root>
        <mxCell id="0" />
        <mxCell id="1" parent="0" />
      </root>
    </mxGraphModel>
  </diagram>
</mxfile>
